<?xml version="1.0" encoding="utf-8"?>
<!-- Generator: Adobe Illustrator 16.0.0, SVG Export Plug-In . SVG Version: 6.00 Build 0)  -->
<svg version="1.2" baseProfile="tiny" xmlns="http://www.w3.org/2000/svg" xmlns:xlink="http://www.w3.org/1999/xlink" x="0px"
	 y="0px" width="512px" height="512px" viewBox="0 0 512 512" xml:space="preserve">
<g id="Layer_12">
	<rect fill="#33CCFF" width="512" height="512"/>
</g>
<g id="Layer_11">
</g>
<g id="Layer_2">
</g>
<g id="Layer_3">
</g>
<g id="Layer_9">
</g>
<g id="Layer_10">
</g>
<g id="Layer_4">
</g>
<g id="Layer_5">
</g>
<g id="Layer_6">
</g>
<g id="Layer_7">
</g>
<g id="Layer_8">
	<g>
		<polygon fill="#FFFFFF" points="456,141.466 456,204.442 437.818,214.943 456,225.442 456,288.432 437.818,298.924 456,309.42 
			456,372.408 256,487.875 201.454,456.386 201.454,435.386 183.273,445.887 128.727,414.397 128.727,393.397 110.545,403.898 
			56,372.408 56,141.466 110.545,109.977 128.729,118.695 128.727,99.477 183.273,67.988 201.454,78.477 201.454,57.489 256,26 		
			"/>
		<polygon fill="#2581C4" points="292.363,319.921 437.818,235.942 401.455,214.943 292.363,277.931 		"/>
		<polygon fill="#2581C4" points="292.363,403.898 437.818,319.921 401.455,298.921 292.363,361.909 		"/>
		<polygon fill="#2DAFE6" points="219.637,403.901 183.273,424.89 183.273,256.936 219.637,277.935 		"/>
		<polygon fill="#2DAFE6" points="146.91,361.909 110.545,382.898 110.545,214.943 146.91,235.943 		"/>
		<polygon fill="#2581C4" points="328.727,172.955 219.637,109.977 219.637,67.988 365.092,151.965 		"/>
		<polygon fill="#2581C4" points="256,214.943 146.91,151.965 146.91,109.977 292.363,193.954 		"/>
		<polygon fill="#30AEE5" points="437.818,361.909 256,466.887 256,256.933 437.818,151.965 437.818,193.954 292.363,277.931 
			292.363,319.921 437.818,235.943 437.818,277.931 292.363,361.909 292.363,403.898 437.818,319.921 		"/>
		<polygon fill="#2581C4" points="256,466.887 219.637,445.887 219.637,277.931 183.273,256.933 183.273,424.897 146.91,403.898 
			146.91,235.943 110.545,214.943 110.545,382.898 74.182,361.909 74.182,151.965 256,256.933 		"/>
		<polygon fill="#63B9E9" points="256,256.935 74.182,151.967 110.545,130.97 256,214.945 292.363,193.957 146.91,109.979 
			183.273,88.981 328.727,172.957 365.092,151.967 219.637,67.986 256,46.991 437.818,151.967 		"/>
	</g>
</g>
</svg>
